<svg xmlns="http://www.w3.org/2000/svg" width="200" height="200" style="shape-rendering:geometricPrecision;text-rendering:geometricPrecision;image-rendering:optimizeQuality;fill-rule:evenodd;clip-rule:evenodd">
  <path fill="#201b1c" d="M-.5-.5h200v200H-.5V-.5Z" style="opacity:1"/>
  <path fill="#8e8b8c" d="M56.5 41.5h86v11h-86v-11Z" style="opacity:1"/>
  <path fill="#fefffe" d="M57.5 42.5h84v9h-84v-9Z" style="opacity:1"/>
  <path fill="#8e8b8c" d="M56.5 56.5h86v11h-86v-11Z" style="opacity:1"/>
  <path fill="#fefffe" d="M57.5 57.5h84v9h-84v-9Z" style="opacity:1"/>
  <path fill="#8d8a8b" d="M56.5 71.5h41v11h-41v-11Z" style="opacity:1"/>
  <path fill="#fefffe" d="M57.5 72.5h39v9h-39v-9Z" style="opacity:1"/>
  <path fill="#8e8b8c" d="M56.5 86.5h86v11h-86v-11Z" style="opacity:1"/>
  <path fill="#fefffe" d="M57.5 87.5h84v9h-84v-9Z" style="opacity:1"/>
  <path fill="#8e8b8c" d="M56.5 101.5h86v11h-86v-11Z" style="opacity:1"/>
  <path fill="#fefffe" d="M57.5 102.5h84v9h-84v-9Z" style="opacity:1"/>
  <path fill="#8d8a8b" d="M56.5 116.5h41v11h-41v-11Z" style="opacity:1"/>
  <path fill="#fefffe" d="M57.5 117.5h39v9h-39v-9Z" style="opacity:1"/>
  <path fill="#8d8a8b" d="M56.5 131.5h41v11h-41v-11Z" style="opacity:1"/>
  <path fill="#fefffe" d="M57.5 132.5h39v9h-39v-9Z" style="opacity:1"/>
  <path fill="#8d8a8b" d="M56.5 146.5h41v11h-41v-11Z" style="opacity:1"/>
  <path fill="#fefffe" d="M57.5 147.5h39v9h-39v-9Z" style="opacity:1"/>
</svg>
